<svg xmlns="http://www.w3.org/2000/svg" viewBox="0 0 391 391"><defs><style>.cls-1{fill:#063c4f;}.cls-2{fill:#e2fca4;fill-rule:evenodd;}</style></defs><title>Asset 7</title><g id="Layer_2" data-name="Layer 2"><g id="Layer_1-2" data-name="Layer 1"><g id="Logo_Square"><rect id="Padding_75_" data-name="Padding @75%" class="cls-1" width="391" height="391"/><path id="Wordmark" class="cls-2" d="M333.8,180.36c-8.27,0-12.53,6.26-12.53,15.23v.61c.15,5.37,2.41,14.44,12.52,14.44,8.14,0,12.41-6.32,12.41-15.11S342.07,180.36,333.8,180.36Zm-23.12-7v7.8H286.32v9.66h22.52v7.55H286.32v11.45h25v7.8H276.77V173.37Zm-64.41,0v17.21h18.19V173.37h9.61v44.26h-9.61V198.38H246.27v19.25h-9.61V173.37Zm-55.64,0v44.26H182V188.81l-28.78,28.75-6.8-6.78L175.17,182H146.31v-8.66Zm-47.34,0v44.26h-9.6V173.37Zm-62.37,0L88,204h.07l8.07-30.64H106.3l7.89,31.08h.06l7.19-31.08H131l-11.64,44.26h-9.86L102.67,192l-1.59-6.37H101L99.43,192l-6.68,25.63h-10L71.25,173.37Zm-27.6-.87c10.29,0,17.55,4.52,17.86,13.44v.37l-9.41.24c-.57-4.88-3.75-6.62-8.65-6.62-3.63,0-7.32,1.42-7.32,4.71,0,1.67.7,2.72,3.18,3.65,3.57,1.36,13.36,3.4,17.43,5.63,3.69,2,6.17,5.39,6.17,10.71,0,9.47-8,13.87-18.51,13.87s-18.38-4.89-19.06-15l0-.4,9.29-.43c.38,5.88,4.32,8.3,10,8.3,4.14,0,8.91-1.74,8.91-5.76,0-2.6-1.85-4.09-5.6-5.14l-3.85-1c-4.6-1.24-10.54-3-12.94-5a10.48,10.48,0,0,1-4.2-8.78C36.59,177.45,43.91,172.5,53.32,172.5Zm280.42,0c14.1,0,22.09,9.82,22.26,22.75v.4c0,7.68-4.07,22.85-22.2,22.85-12.78,0-22.26-8.36-22.26-22.78C311.54,183.15,319.11,172.5,333.74,172.5ZM215,172.5c9.46,0,17.07,4.93,19,14l.08.4L224.69,188c-.82-4.52-4.83-7.56-9.73-7.56-7.88,0-11.89,5.89-11.89,15.05s4,15.17,11.77,15.17c5.42,0,8.95-3.4,10.17-9.3l.07-.36,9.28,1.36c-2,10.28-9.48,16.16-19.46,16.16-13.42,0-21.56-9.66-21.56-22.72C193.34,182.53,201.29,172.5,215,172.5Z"/></g></g></g></svg>